<?xml version="1.0" standalone="no"?>
<!DOCTYPE svg PUBLIC "-//W3C//DTD SVG 20010904//EN"
 "http://www.w3.org/TR/2001/REC-SVG-20010904/DTD/svg10.dtd">
<svg version="1.0" xmlns="http://www.w3.org/2000/svg"
 width="260.000000pt" height="260.000000pt" viewBox="0 0 260.000000 260.000000"
 preserveAspectRatio="xMidYMid meet">
<metadata>
Created by potrace 1.11, written by Peter Selinger 2001-2013
</metadata>
<g transform="translate(0.000000,260.000000) scale(0.100000,-0.100000)"
fill="#000000" stroke="none">
<path d="M1132 2590 c-557 -79 -988 -483 -1108 -1041 -26 -118 -26 -380 0
-498 59 -273 167 -473 361 -666 193 -194 393 -302 666 -361 118 -26 380 -26
498 0 273 59 473 167 666 361 194 193 302 393 361 666 14 62 18 127 18 249 0
122 -4 187 -18 249 -59 273 -167 473 -361 666 -190 190 -383 297 -645 356 -98
22 -340 33 -438 19z m584 -189 c100 -61 62 -285 -116 -678 -25 -56 -38 -73
-58 -79 -21 -5 -23 -8 -9 -11 9 -3 17 -7 17 -10 0 -11 -105 -190 -152 -260
-27 -40 -82 -113 -123 -163 -60 -72 -81 -90 -103 -91 -21 0 -23 -2 -9 -7 16
-7 15 -10 -11 -35 -20 -20 -34 -26 -48 -20 -16 6 -17 5 -6 -9 11 -14 1 -26
-75 -87 -48 -39 -126 -90 -172 -114 -77 -38 -91 -42 -161 -42 -68 0 -80 3
-113 28 -20 15 -37 32 -37 37 0 5 38 32 85 60 308 186 506 403 739 809 86 149
139 251 134 257 -3 2 -32 -45 -66 -104 -228 -400 -439 -664 -650 -812 -104
-73 -260 -162 -272 -155 -4 2 -13 25 -20 51 -26 92 19 178 157 300 43 37 109
97 147 133 l69 66 14 -35 13 -35 -6 42 c-5 40 -3 45 58 115 81 93 130 163 259
370 97 157 104 166 116 145 12 -20 12 -20 7 9 -4 21 0 40 11 58 20 30 32 33
38 9 2 -10 3 -4 2 12 -3 36 37 94 117 171 92 90 162 113 224 75z m604 -977
c22 -21 25 -33 25 -92 0 -57 -6 -79 -38 -146 -62 -130 -222 -336 -261 -336
-14 0 -17 -3 -8 -8 19 -13 -29 -54 -54 -46 -15 5 -16 4 -5 -4 19 -14 11 -24
-103 -120 -110 -92 -221 -165 -341 -224 -145 -71 -153 -74 -171 -52 -14 18
-15 18 -9 -3 5 -20 -1 -24 -60 -42 -219 -68 -389 -41 -434 68 l-12 29 -117 4
c-64 3 -125 9 -134 13 -31 13 -9 25 46 25 29 0 87 3 128 6 l76 7 4 52 c8 98
59 137 240 188 78 22 88 23 91 8 4 -12 6 -11 12 7 4 12 11 22 15 22 5 0 15 3
23 6 10 3 17 -2 20 -13 4 -14 5 -14 6 5 0 12 6 22 12 22 20 0 174 82 239 127
36 25 139 104 228 177 90 72 167 130 170 129 4 -1 10 -12 14 -25 5 -18 6 -15
7 14 1 35 8 43 76 98 124 98 216 145 265 134 14 -3 36 -16 50 -30z m-1796
-540 c4 -9 5 -18 4 -19 -15 -13 -122 -60 -182 -80 -83 -28 -96 -30 -96 -15 0
11 234 130 255 130 7 0 16 -7 19 -16z"/>
<path d="M1980 1049 c-239 -224 -523 -414 -715 -478 -80 -26 -241 -58 -337
-67 -73 -6 -78 -8 -78 -30 0 -26 -8 -26 173 2 298 46 529 171 863 466 77 67
186 180 172 178 -2 -1 -37 -33 -78 -71z"/>
<path d="M1998 853 c7 -3 16 -2 19 1 4 3 -2 6 -13 5 -11 0 -14 -3 -6 -6z"/>
</g>
</svg>
